<?xml version="1.0" encoding="utf-8"?>
<!-- Generator: Adobe Illustrator 22.0.1, SVG Export Plug-In . SVG Version: 6.00 Build 0)  -->
<svg version="1.1" id="Layer_1" xmlns="http://www.w3.org/2000/svg" xmlns:xlink="http://www.w3.org/1999/xlink" x="0px" y="0px"
	 viewBox="0 0 2237.2 511.1" style="enable-background:new 0 0 2237.2 511.1;" xml:space="preserve">
<style type="text/css">
	.st0{fill:#0058B7;}
	.st1{fill:#0071EA;}
	.st2{fill:#111A22;}
</style>
<g id="Logo_Final_Horizontal">
	<g>
		<path class="st0" d="M736.2,267.1c0,83.1-67.3,150.4-150.4,150.4c-12.5,0-24.7-1.5-36.3-4.4c-3.2,4.1-6.6,8.2-10,12.1
			c-24.1,27.2-53.8,49.2-87.5,64.1c-31.6,14-66.5,21.8-103.3,21.8c-14.5,0-28.7-1.2-42.6-3.6c-60.4-10.2-113.5-41.6-151.5-86.3
			c-0.2-0.2-0.4-0.5-0.6-0.7L3.8,471.3l96-62.5l31.2-20.3l65-42.4l104.4-68l17.6-11.4l1.6-1l20.6,34.8l12.8,21.6l15.5,26.2l3.8,6.4
			l28.8,48.6l35.8-39.3l19.1-21l21.1-23.2l10.6-11.7l107-117.6l6.9-7.6l47.4-52.1c39.4,18.3,69.5,53.1,81.5,95.5
			C734.2,239.1,736.2,252.9,736.2,267.1z"/>
		<path class="st1" d="M719.1,53.5L617.1,120l-32.5,21.2l-6.7,4.3l-101.3,66l-38.1,24.8l-7.9,5.2l-20.6-34.8L386,165.9l-32.1-54.2
			l-9.1-15.3l-73.7,81l-2.3,2.6l-33.5,36.8l-83.8,92.1l-39,42.9l-40.1,44C36.7,374,10.7,337.8,2.6,295.2C0.9,286.1,0,276.7,0,267.1
			c0-71.8,50.4-131.9,117.7-146.8c13-34.4,36-63.9,65.3-85.1C212.6,13.8,248.7,0.9,287.8,0c1.4,0,2.8,0,4.2,0
			c11.3,0,22.3,1,33.1,2.9c27.8,5,53.5,16.1,75.6,32C414.7,45,427.2,57,438,70.5c6.4-0.9,13-1.3,19.6-1.3c36,0,68.9,12.8,94.6,34.1
			l0,0c1.8,1.5,3.6,3.1,5.3,4.7l8-2.7h0L719.1,53.5z"/>
	</g>
	<g>
		<path class="st2" d="M1010.2,393h-52.3V272.7c0-24.7-12.2-37.1-36.7-37.1c-19,0-34.1,7.8-45.3,23.5V393h-52.3V194h52.3v26
			c17.3-20.6,40.5-30.9,69.6-30.9c21.4,0,37.6,5.6,48.4,16.9c10.8,11.3,16.3,26.8,16.3,46.6V393z"/>
		<path class="st2" d="M1323.4,393H1271V118.2h52.3V393z"/>
		<path class="st2" d="M1523.6,367.7c-19.2,20.2-44.8,30.3-76.6,30.3c-31.9,0-57.3-10.1-76.4-30.3c-19.1-20.2-28.6-45-28.6-74.4
			c0-29.4,9.5-54.1,28.6-74.2c19.1-20.1,44.6-30.1,76.4-30.1c31.9,0,57.4,10,76.6,30.1c19.2,20.1,28.8,44.8,28.8,74.2
			C1552.5,322.7,1542.9,347.5,1523.6,367.7z M1409.9,334.7c9.1,11.1,21.4,16.7,37.1,16.7c15.7,0,28.1-5.6,37.3-16.7
			c9.2-11.1,13.8-24.9,13.8-41.4c0-16.2-4.6-29.9-13.8-41c-9.2-11.1-21.6-16.7-37.3-16.7c-15.7,0-28,5.6-37.1,16.7
			c-9.1,11.1-13.6,24.8-13.6,41C1396.3,309.8,1400.8,323.6,1409.9,334.7z"/>
		<path class="st2" d="M1757.3,393h-52.3v-25.1c-17.9,20.1-41.2,30.1-70.1,30.1c-21.4,0-37.5-5.5-48.2-16.5
			c-10.7-11-16.1-26.4-16.1-46.2V194h52.3v120.7c0,24.5,12.2,36.7,36.7,36.7c18.4,0,33.5-7.6,45.3-22.7V194h52.3V393z"/>
		<path class="st2" d="M1978.1,393h-52.7v-25.5c-16.2,20.3-36.7,30.5-61.4,30.5c-25.8,0-47-9.3-63.5-27.8s-24.7-44-24.7-76.4
			c0-31.9,8.2-57.3,24.7-76.2c16.5-19,37.6-28.4,63.5-28.4c25.3,0,45.7,10.2,61.4,30.5V118.2h52.7V393z M1880.1,351.4
			c8.8,0,17.4-2.1,26-6.4c8.5-4.3,15-9.7,19.4-16.3v-70.5c-4.4-6.6-10.9-12-19.4-16.3c-8.5-4.3-17.2-6.4-26-6.4
			c-14.8,0-26.9,5.4-36.3,16.1c-9.3,10.7-14,24.7-14,42c0,17,4.7,30.9,14,41.6C1853.1,346,1865.2,351.4,1880.1,351.4z"/>
		<path class="st2" d="M2081.2,398c-17.3,0-33.9-2.7-49.7-8.2c-15.8-5.5-28.9-13-39.4-22.7l22.7-36.7c7.7,7.1,18.1,13.5,31.3,19
			c13.2,5.5,25.7,8.2,37.5,8.2c11,0,19.3-1.9,24.9-5.8c5.6-3.8,8.4-9.1,8.4-15.7c0-4.9-3-9-8.9-12.2c-5.9-3.2-13.2-5.4-21.8-6.8
			c-8.7-1.4-18.1-3.4-28.4-6.2c-10.3-2.7-19.8-6-28.4-9.9c-8.7-3.8-15.9-10-21.8-18.3c-5.9-8.4-8.9-18.7-8.9-31.1
			c0-17.6,7.3-32.4,21.8-44.5c14.6-12.1,34.5-18.1,59.8-18.1c30.8,0,57.5,9.1,80.4,27.2l-21,35.9c-6.3-6.6-14.8-12.1-25.3-16.5
			c-10.6-4.4-21.8-6.6-33.6-6.6c-9.3,0-16.9,1.9-22.7,5.6c-5.8,3.7-8.7,8.4-8.7,14.2c0,4.4,2.9,8,8.7,10.9c5.8,2.9,13,5,21.8,6.4
			c8.8,1.4,18.3,3.5,28.4,6.4c10.2,2.9,19.6,6.3,28.4,10.3c8.8,4,16.1,10.4,21.8,19.2c5.8,8.8,8.7,19.5,8.7,32.1
			c0,18.7-7.6,34-22.9,45.9C2129.2,392,2108.1,398,2081.2,398z"/>
		<g>
			<path class="st2" d="M1028.3,257.5c0-93,47.7-144.3,121.8-144.3c50.5,0,82.8,20.5,102.9,64.6l-51.6,26.8
				c-7.1-22.9-21.7-38.2-51.2-38.2c-35.1,0-58.3,23.6-58.3,67v44.1c0,43.4,23.3,67,58.3,67c29.6,0,46.5-18.5,54.8-41l48.9,28.4
				c-20.5,41.8-53.2,65.8-103.7,65.8C1075.9,397.8,1028.3,350.5,1028.3,257.5z"/>
		</g>
	</g>
	<g>
		<path class="st2" d="M2193.5,220.6c-4.8,0-8.5-1.6-11.3-4.7l2.2-2.8c2.5,2.8,5.6,4.2,9.2,4.2c2.4,0,4.1-0.5,5.2-1.5
			c1.1-1,1.7-2.2,1.7-3.5c0-1-0.3-1.9-1-2.6c-0.6-0.7-1.5-1.3-2.5-1.6c-1-0.4-2.1-0.8-3.4-1.1c-1.2-0.3-2.5-0.7-3.7-1.1
			c-1.2-0.4-2.4-0.9-3.4-1.4c-1-0.6-1.8-1.3-2.5-2.4c-0.6-1-1-2.2-1-3.7c0-2.4,1-4.4,2.9-5.9c1.9-1.5,4.3-2.3,7.2-2.3
			c4.4,0,7.8,1.4,10.4,4.1l-2.2,2.7c-2.1-2.3-5-3.5-8.5-3.5c-1.8,0-3.2,0.4-4.3,1.3c-1.1,0.9-1.7,2-1.7,3.4c0,1,0.4,1.9,1.3,2.6
			c0.9,0.7,1.9,1.2,3.2,1.5c1.3,0.3,2.7,0.7,4.2,1.2c1.5,0.5,2.9,1,4.2,1.5c1.3,0.5,2.3,1.4,3.2,2.6c0.9,1.2,1.3,2.7,1.3,4.4
			c0,2.4-0.9,4.4-2.7,6.1C2199.8,219.7,2197.1,220.6,2193.5,220.6z"/>
		<path class="st2" d="M2237.2,220h-3.7v-24.2l-10,24.2h-1.5l-9.9-24.2V220h-3.7v-29.3h5.2l9.1,22.1l9.2-22.1h5.2V220z"/>
	</g>
</g>
</svg>
