<?xml version="1.0" encoding="UTF-8" standalone="no"?>
<svg xmlns:rdf="http://www.w3.org/1999/02/22-rdf-syntax-ns#" xmlns="http://www.w3.org/2000/svg" xml:space="preserve" height="42.179" viewBox="0 0 210.33408 42.178909" width="210.33" version="1.1" xmlns:cc="http://creativecommons.org/ns#" xmlns:dc="http://purl.org/dc/elements/1.1/"><g transform="matrix(1.25 0 0 -1.25 -193.71 80.652)"><g transform="matrix(.35 0 0 .35 155.74 31.087)"><path d="m84.787 23.092c-15.925 0-23.275 10.165-23.275 22.66v45.564c0 12.495 7.3504 22.664 23.275 22.664 15.19 0 22.539-10.169 22.539-22.664v-10.166h-15.189v10.656c0 5.7575-1.8371 8.9434-7.3496 8.9434-6.125 0-8.0859-3.187-8.0859-9.8008v-44.828c0-6.6162 1.9609-9.8008 8.0859-9.8008 3.92 0 7.3496 3.1838 7.3496 10.656v6.8613h15.189v-6.4922c0-13.23-7.3491-24.254-22.539-24.254zm-84.525 1.2227v66.145c0 15.19 8.8204 23.521 23.275 23.521s23.273-8.3315 23.273-23.521v-66.145h-15.189v66.756c0 6.4925-2.5715 9.6797-8.084 9.6797s-8.0859-3.1872-8.0859-9.6797v-66.756h-15.189z" transform="matrix(.8 0 0 -.8 0 93)" fill="#f1ab00"/><path d="m310.14 0.28906c-3.2388 0-5.4082 2.0455-5.4082 4.6367 0 5.6837 10.121 4.3376 10.121 8.9238 0 1.845-1.3216 3.2422-3.9629 3.2422-2.6412 0-3.9872-1.7462-4.7109-3.6387l-1.8203 0.64648c0.9475 2.1438 2.4909 4.6855 6.4297 4.6855 4.5862 0 6.0586-2.667 6.0586-5.2832 0-5.7825-10.171-4.7859-10.121-8.7246 0.0238-1.7938 1.2702-2.791 3.3652-2.791 2.3188 0 3.7388 1.3944 4.1875 3.1406l1.7949-0.40039c-0.94625-2.9662-3.1411-4.4375-5.9336-4.4375zm75.822 0c-4.4125 0-7.0273 3.2425-7.0273 9.25 0 6.0063 2.6148 9.2461 7.0273 9.2461 4.4112 0 7.0293-3.2398 7.0293-9.2461 0-6.0075-2.618-9.25-7.0293-9.25zm47.135 0c-4.3375 0-6.8809 3.3912-6.8809 9.25 0 6.3063 2.8421 9.2461 6.8809 9.2461 3.6888 0 5.5326-2.2935 6.3301-5.6348l-1.7949-0.3457c-0.5475 2.1938-1.6205 4.2871-4.3867 4.2871-2.9912 0-5.0352-2.344-5.0352-7.5527 0-5.16 2.0442-7.5527 4.6367-7.5527 2.6925 0 3.8388 1.5454 4.4863 4.0879l1.8457-0.54883c-0.7975-3.29-2.7433-5.2363-6.082-5.2363zm82.551 0c-4.4125 0-7.0293 3.2425-7.0293 9.25 0 6.0063 2.6168 9.2461 7.0293 9.2461 4.4112 0 7.0293-3.2398 7.0293-9.2461 0-6.0075-2.618-9.25-7.0293-9.25zm-393.11 0.056641v113.58h19.506v-46.566l0.0508-67.018h-19.557zm20.199 0 3.1484 19.723 11.674-17.975-7.1699 21.529 19.395-11.781-15.801 16.281 27.656-3.2383-26.377 8.8555 25.336 9.002-26.615-3.3926 15.801 16.293-19.395-11.783 7.1699 21.527l-11.54-17.796-3.26 19.769c3.3-0.02 7.017-0.1768 9.3633-0.4668l13.848 47.037h19.816l-16.512-51.447c6.6025-2.985 13.68-10.378 13.68-28.629 0-24.228-11.165-33.508-33.031-33.508h-7.1719zm54.215 0.19531v12.561c0 3.5888 2.5941 5.6836 6.3066 5.6836 3.7138 0 6.3066-2.0948 6.3066-5.6836v-12.561h-1.9941v12.711c0 2.0925-1.4962 3.8398-4.3125 3.8398-2.8162 0-4.3106-1.7473-4.3106-3.8398v-12.711h-1.9961zm21.137 0v17.996h1.7949v-16.053h0.0488l9.123 16.053h1.6465v-17.996h-1.7949v13.857h-0.0996l-7.8516-13.857h-2.8672zm21.586 0v17.996h1.9941v-17.996h-1.9941zm8.748 0 5.5566 17.996h1.8203l5.584-17.996h-2.0195l-4.4609 14.756h-0.0488l-4.4375-14.756h-1.9942zm19.242 0v17.996h11.291v-1.6953h-9.2969v-6.8789h6.2559v-1.6973h-6.2559v-6.0312h8.7988v-1.6934h-10.793zm18.17 0v17.996h1.9961v-8.1758h4.2109l3.6387 8.1758h2.168l-3.8145-8.5742c2.12-0.69875 3.5918-2.145 3.5918-4.6875 0-2.9912-2.1191-4.7344-6.0078-4.7344h-5.7832zm38.783 0v17.996h1.9941v-17.996h-1.9941zm8.8476 0v1.6934h5.3848v16.303h1.9941v-16.303h5.3828v-1.6934h-12.762zm16.85 0 5.5352 10.42v7.5762h1.9922v-7.5762l5.5332-10.42h-2.1914l-4.3379 8.248-4.3359-8.248h-2.1953zm49.602 0v17.996h1.9922v-8.5742h6.4316v-1.6973h-6.4316v-6.0312h8.6758v-1.6934h-10.668zm49.75 0-5.5332 17.996h2.0918l1.6973-5.6348h6.4551l1.6953 5.6348h2.0938l-5.5352-17.996h-2.9648zm14.93 0v17.996h10.52v-1.6953h-8.5254v-16.301h-1.9941zm17.449 0v17.996h1.9941v-17.996h-1.9941zm10.791 0v17.996h1.9941v-8.5742h6.4316v-1.6973h-6.4316v-6.0312h8.6738v-1.6934h-10.668zm36.764 0v17.996h1.9941v-8.1758h4.2109l3.6426 8.1758h2.166l-3.8125-8.5742c2.1188-0.69875 3.5879-2.145 3.5879-4.6875 0-2.9912-2.1178-4.7344-6.0078-4.7344h-5.7812zm19.965 0v17.996h1.7969v-16.053h0.0469l9.125 16.053h1.6426v-17.996h-1.793v13.857h-0.0996l-7.8516-13.857h-2.8672zm21.586 0v17.996h1.9941v-17.996h-1.9941zm14.432 0-5.5332 17.996h2.0938l1.6934-5.6348h6.4551l1.6973 5.6348h2.0938l-5.5332-17.996h-2.9668zm-134.57 1.3945h0.27344l2.5898 9.2734h-5.457l2.5938-9.2734zm135.91 0h0.27539l2.5918 9.2734h-5.459l2.5918-9.2734zm-200.97 0.050781c3.165 0 5.0352 2.4427 5.0352 7.5527s-1.8702 7.5527-5.0352 7.5527c-3.1662 0-5.0332-2.4427-5.0332-7.5527s1.867-7.5527 5.0332-7.5527zm129.69 0c3.165 0 5.0352 2.4427 5.0352 7.5527s-1.8702 7.5527-5.0352 7.5527c-3.1662 0-5.0352-2.4427-5.0352-7.5527s1.8689-7.5527 5.0352-7.5527zm-227.81 0.24805h3.5879c2.5662 0 4.2129 0.72383 4.2129 3.1426 0 2.2675-1.447 3.2891-4.1894 3.2891h-3.6113v-6.4316zm243.76 0h3.5898c2.5675 0 4.2109 0.72383 4.2109 3.1426 0 2.2675-1.4462 3.2891-4.1875 3.2891h-3.6133v-6.4316zm-109.05 20.93c-15.112 0-23.789 8.0558-23.789 22.301 0 25.639 31.223 30.347 31.223 48.064 0 5.325-3.5944 8.1777-8.9219 8.1777-4.9562 0-8.548-4.4616-9.168-13.508l-14.615 2.1055c0.615 13.379 8.7923 24.781 23.041 24.781 14.373 0 24.285-8.1769 24.285-22.922 0-24.276-31.223-31.584-31.223-46.826 0.00001-5.57 2.7234-8.7949 7.6797-8.7949 3.47 0 7.5602 2.2355 8.1777 9.918l14.619-1.6113c-1.365-12.639-8.7936-21.686-21.309-21.686zm-225.6 1.2383v89.445h15.363v-89.445h-15.363zm25.842 0 18.703 89.445h15.361l18.709-89.445h-15.111l-11.15 62.068h-0.25196l-11.15-62.068h-15.109zm62.846 0v89.445h42.875v-13.379h-27.512v-26.268h19.832v-13.373h-19.832v-23.045h25.777v-13.381h-41.141zm54.836 0v89.445h15.359v-36.672c2.725 0 5.9497-0.12414 7.9297-0.36914l10.902 37.041h15.611l-13.008-40.516c5.2012-2.3488 10.775-8.1628 10.775-22.539 0-19.08-8.7942-26.391-26.012-26.391h-21.559zm117.43 0v89.445h15.361v-89.445h-15.361zm32.512 0v89.445h22.799c15.859 0 24.279-8.6723 24.279-27.01v-35.426c0-18.335-8.4206-27.01-24.279-27.01h-22.799zm62.217 0v89.445h42.863v-13.379h-27.502v-26.268h19.824v-13.373h-19.824v-23.045h25.77v-13.381h-41.131zm-196.8 12.641h5.4531c8.2988 0 11.4 3.095 11.4 13.75 0 10.654-3.1016 13.75-11.4 13.75h-5.4531v-27.5zm149.95 0h5.3242c8.1788 0 11.027 3.0948 11.027 12.51v39.143c0 9.4163-2.8486 12.514-11.027 12.514h-5.3242v-64.166z" transform="matrix(.8 0 0 -.8 0 93)" fill="#2d6cc0"/></g></g></svg>
